<svg width="22" height="16" viewBox="0 0 22 16" fill="none" xmlns="http://www.w3.org/2000/svg">
<path d="M3 13C3 13.5304 3.21071 14.0391 3.58579 14.4142C3.96086 14.7893 4.46957 15 5 15C5.53043 15 6.03914 14.7893 6.41421 14.4142C6.78929 14.0391 7 13.5304 7 13C7 12.4696 6.78929 11.9609 6.41421 11.5858C6.03914 11.2107 5.53043 11 5 11C4.46957 11 3.96086 11.2107 3.58579 11.5858C3.21071 11.9609 3 12.4696 3 13ZM15 13C15 13.5304 15.2107 14.0391 15.5858 14.4142C15.9609 14.7893 16.4696 15 17 15C17.5304 15 18.0391 14.7893 18.4142 14.4142C18.7893 14.0391 19 13.5304 19 13C19 12.4696 18.7893 11.9609 18.4142 11.5858C18.0391 11.2107 17.5304 11 17 11C16.4696 11 15.9609 11.2107 15.5858 11.5858C15.2107 11.9609 15 12.4696 15 13Z" stroke="#979797" stroke-width="2" stroke-linecap="round" stroke-linejoin="round"/>
<path d="M3 13H1V2C1 1.73478 1.10536 1.48043 1.29289 1.29289C1.48043 1.10536 1.73478 1 2 1H16C17.3261 1 18.5979 1.7375 19.5355 3.05025C20.4732 4.36301 21 6.14348 21 8V13H19M15 13H7" stroke="#979797" stroke-width="2" stroke-linecap="round" stroke-linejoin="round"/>
<path d="M15 1L16.5 8H21M1 6H16M6 1V6M11 1V6" stroke="#979797" stroke-width="2" stroke-linecap="round" stroke-linejoin="round"/>
</svg>
