<svg width="14" height="15" viewBox="0 0 14 15" fill="none" xmlns="http://www.w3.org/2000/svg">
<path fill-rule="evenodd" clip-rule="evenodd" d="M11.6647 1.68243C10.5691 0.56081 9.24359 0 7.68812 0V5.71983H13.308C13.308 4.14985 12.7602 2.80405 11.6647 1.68243ZM12.1253 9.95892C12.6731 10.4747 12.947 11.1028 12.947 11.843C12.947 12.5383 12.7114 13.1271 12.2403 13.6094C11.7691 14.0918 11.194 14.3329 10.5149 14.3329C9.90121 14.3329 9.36442 14.1255 8.9045 13.7106C8.44459 13.2958 8.1707 12.7855 8.08283 12.1797H6.60424C6.51637 12.7855 6.24808 13.2958 5.79939 13.7106C5.35069 14.1255 4.8195 14.3329 4.20582 14.3329C3.5267 14.3329 2.9462 14.0918 2.46432 13.6094C1.98244 13.1271 1.7415 12.5383 1.7415 11.843C1.7415 10.8559 2.16869 10.1156 3.02309 9.62229L1.54449 6.45984H0V5.01283H2.43207L3.08969 6.45984H13.3101C13.3101 7.73841 12.9157 8.90477 12.1267 9.95892H12.1253ZM4.94476 12.6003C4.73631 12.8132 4.48976 12.9197 4.20512 12.9197C3.92048 12.9197 3.67393 12.8132 3.46547 12.6003C3.25701 12.3873 3.15302 12.1349 3.15349 11.843C3.15396 11.5511 3.25795 11.2987 3.46547 11.0858C3.67299 10.8729 3.91954 10.7664 4.20512 10.7664C4.49069 10.7664 4.73724 10.8729 4.94476 11.0858C5.15229 11.2987 5.25628 11.5511 5.25675 11.843C5.25722 12.1349 5.15322 12.3873 4.94476 12.6003ZM11.2545 12.6003C11.0461 12.8132 10.7995 12.9197 10.5149 12.9197C10.2303 12.9197 9.98371 12.8132 9.77525 12.6003C9.5668 12.3873 9.4628 12.1349 9.46327 11.843C9.46374 11.5511 9.56773 11.2987 9.77525 11.0858C9.98277 10.8729 10.2293 10.7664 10.5149 10.7664C10.8005 10.7664 11.047 10.8729 11.2545 11.0858C11.4621 11.2987 11.5661 11.5511 11.5665 11.843C11.567 12.1349 11.463 12.3873 11.2545 12.6003Z" fill="#C0C4CC"/>
</svg>
