<svg width="12" height="12" viewBox="0 0 12 12" fill="none" xmlns="http://www.w3.org/2000/svg">
<path fill-rule="evenodd" clip-rule="evenodd" d="M0.410734 0.410826C0.736171 0.0853888 1.26381 0.0853888 1.58925 0.410826L5.99999 4.82157L10.4107 0.410826C10.7362 0.0853888 11.2638 0.0853888 11.5892 0.410826C11.9147 0.736263 11.9147 1.2639 11.5892 1.58934L7.1785 6.00008L11.5892 10.4108C11.9147 10.7363 11.9147 11.2639 11.5892 11.5893C11.2638 11.9148 10.7362 11.9148 10.4107 11.5893L5.99999 7.17859L1.58925 11.5893C1.26381 11.9148 0.736171 11.9148 0.410734 11.5893C0.0852972 11.2639 0.0852972 10.7363 0.410734 10.4108L4.82148 6.00008L0.410734 1.58934C0.0852972 1.2639 0.0852972 0.736263 0.410734 0.410826Z" fill="#263044"/>
</svg>
