<svg width="16" height="17" viewBox="0 0 16 17" fill="none" xmlns="http://www.w3.org/2000/svg">
<path fill-rule="evenodd" clip-rule="evenodd" d="M4.14899 7.15956C4.14899 7.37812 4.00666 7.52383 3.79318 7.52383C3.5797 7.52383 3.43738 7.37812 3.43738 7.15956V2.42411C3.43738 1.62272 4.07783 0.967041 4.8606 0.967041H11.2651C12.0478 0.967041 12.6883 1.62272 12.6883 2.42411V7.15956C12.6883 7.37812 12.546 7.52383 12.3325 7.52383C12.119 7.52383 11.9767 7.37812 11.9767 7.15956V2.42411C11.9767 2.02341 11.6565 1.69557 11.2651 1.69557H4.8606C4.46921 1.69557 4.14899 2.02341 4.14899 2.42411V7.15956ZM13.0441 4.31829H14.1115C14.7164 4.31829 15.1789 4.79183 15.1789 5.41109V13.4249C15.1789 14.0442 14.7164 14.5177 14.1115 14.5177H2.01416C1.40929 14.5177 0.946747 14.0442 0.946747 13.4249V5.41109C0.946747 4.79183 1.40929 4.31829 2.01416 4.31829H3.08157V7.23242C3.11715 7.52383 3.29506 7.74239 3.54412 7.85167C3.5797 7.85167 3.62418 7.86078 3.66865 7.86988C3.71313 7.87899 3.7576 7.8881 3.79318 7.8881C3.86434 7.8881 3.97108 7.8881 4.04225 7.85167C4.29131 7.74239 4.46921 7.52383 4.50479 7.23242V4.31829H11.6209V7.23242C11.6565 7.52383 11.8344 7.74239 12.0834 7.85167C12.119 7.85167 12.1635 7.86078 12.208 7.86988C12.2524 7.87899 12.2969 7.8881 12.3325 7.8881C12.4036 7.8881 12.5104 7.8881 12.5816 7.85167C12.8306 7.74239 13.0085 7.52383 13.0441 7.23242V4.31829Z" fill="#C0C4CC"/>
</svg>
