<svg width="17" height="14" viewBox="0 0 17 14" fill="none" xmlns="http://www.w3.org/2000/svg">
<path fill-rule="evenodd" clip-rule="evenodd" d="M12.0627 12.656C12.0627 13.1932 11.6134 13.6291 11.0565 13.6291H1.00625C0.449304 13.6291 0 13.1932 0 12.656C0 10.71 1.9432 8.8914 3.92877 8.17455C2.78127 7.48869 2.00979 6.26915 2.00979 4.8692V3.89549C2.00979 1.74495 3.81241 0 6.03205 0C8.2517 0 10.0543 1.74495 10.0543 3.89549V4.8685C10.0543 6.26984 9.28213 7.48799 8.13531 8.17455C10.1202 8.89208 12.0627 10.71 12.0627 12.656H12.0627Z" fill="#C0C4CC"/>
<path fill-rule="evenodd" clip-rule="evenodd" d="M13.3723 12.6016H15.3734C15.7991 12.6016 16.1429 12.2683 16.1429 11.8579C16.1429 10.3691 14.6564 8.97947 13.1389 8.43133C14.016 7.90661 14.6066 6.97423 14.6066 5.90274V5.15766C14.6066 3.51325 13.2284 2.17871 11.5307 2.17871C11.3195 2.17871 11.1137 2.19937 10.9139 2.23862C11.1581 2.74131 11.2946 3.30253 11.2946 3.89473V4.86775C11.2946 6.26908 10.9092 7.33299 9.89893 8.17379C11.7708 8.64411 13.3434 10.6721 13.3723 12.6016V12.6016Z" fill="#C0C4CC"/>
</svg>
