<svg width="16" height="23" viewBox="0 0 16 23" fill="none" xmlns="http://www.w3.org/2000/svg">
<path fill-rule="evenodd" clip-rule="evenodd" d="M15.8101 18.6229L12.2641 22.1562C12.0226 22.3977 11.6159 22.3977 11.3744 22.1435L7.8284 18.6102C7.42168 18.2162 7.7013 17.5299 8.27324 17.5299H10.5483V9.89133C10.5483 9.19229 11.1202 8.62035 11.8193 8.62035C12.5183 8.62035 13.0902 9.19229 13.0902 9.89133V17.5426H15.3653C15.9245 17.5426 16.2168 18.2289 15.8101 18.6229ZM4.63824 0.181114L8.18427 3.71443C8.59098 4.10843 8.31136 4.79476 7.73942 4.79476H5.46438V12.4333C5.46438 13.1324 4.89244 13.7043 4.1934 13.7043C3.49436 13.7043 2.92243 13.1324 2.92243 12.4333V4.79476H0.634669C0.0754404 4.79476 -0.216885 4.10843 0.189829 3.71443L3.73585 0.181114C3.99005 -0.0603713 4.38405 -0.0603713 4.63824 0.181114Z" fill="#717171"/>
</svg>
